<svg width="108" height="44" viewBox="0 0 108 44" fill="none" xmlns="http://www.w3.org/2000/svg">
<mask id="mask0_1116_139" style="mask-type:alpha" maskUnits="userSpaceOnUse" x="0" y="0" width="108" height="44">
<rect width="108" height="44" fill="white"/>
</mask>
<g mask="url(#mask0_1116_139)">
<circle cx="95.9775" cy="22" r="8" fill="white" fill-opacity="0.4"/>
<path fill-rule="evenodd" clip-rule="evenodd" d="M117.888 24C116.878 35.213 107.454 44 95.9777 44C84.5016 44 75.0778 35.213 74.0674 24H85.1591C86.0996 29.1202 90.5855 33 95.9777 33C101.37 33 105.856 29.1202 106.796 24H117.888ZM117.955 21H106.933C106.428 15.3935 101.716 11 95.9777 11C90.2396 11 85.5277 15.3935 85.0225 21H74C74.5228 9.31387 84.1625 0 95.9777 0C107.793 0 117.433 9.31387 117.955 21Z" fill="white" fill-opacity="0.4"/>
<path fill-rule="evenodd" clip-rule="evenodd" d="M24.888 -8C23.8775 3.213 14.4538 12 2.97768 12C-8.49841 12 -17.9222 3.213 -18.9326 -8H-7.84095C-6.90043 -2.87976 -2.41446 1 2.97768 1C8.36982 1 12.8558 -2.87976 13.7963 -8H24.888ZM24.9554 -11H13.9328C13.4276 -16.6065 8.71572 -21 2.97768 -21C-2.76037 -21 -7.47225 -16.6065 -7.97748 -11H-19C-18.4772 -22.6861 -8.83745 -32 2.97768 -32C14.7928 -32 24.4326 -22.6861 24.9554 -11Z" fill="white" fill-opacity="0.4"/>
</g>
</svg>
