<svg width="44" height="44" viewBox="0 0 44 44" fill="none" xmlns="http://www.w3.org/2000/svg">
<circle cx="21.9775" cy="22" r="8" fill="black" fill-opacity="0.05"/>
<path fill-rule="evenodd" clip-rule="evenodd" d="M43.8879 24C42.8774 35.213 33.4537 44 21.9775 44C10.5013 44 1.07767 35.213 0.0672239 24H11.1589C12.0994 29.1202 16.5853 33 21.9775 33C27.3697 33 31.8557 29.1202 32.7962 24H43.8879ZM43.9552 21H32.9327C32.4275 15.3935 27.7156 11 21.9775 11C16.2394 11 11.5276 15.3935 11.0224 21H-0.000138553C0.522646 9.31386 10.1623 0 21.9775 0C33.7928 0 43.4324 9.31386 43.9552 21Z" fill="black" fill-opacity="0.05"/>
</svg>
